<svg width="256" height="256" viewBox="0 0 256 256" fill="none" xmlns="http://www.w3.org/2000/svg">
  <defs>
    <linearGradient id="shieldFill" x1="56" y1="26" x2="196" y2="220" gradientUnits="userSpaceOnUse">
      <stop offset="0" stop-color="#BAFFE7"/>
      <stop offset="0.35" stop-color="#56E8AE"/>
      <stop offset="1" stop-color="#0F6A48"/>
    </linearGradient>

    <linearGradient id="shine" x1="70" y1="38" x2="150" y2="110" gradientUnits="userSpaceOnUse">
      <stop offset="0" stop-color="white" stop-opacity="0.52"/>
      <stop offset="1" stop-color="white" stop-opacity="0"/>
    </linearGradient>
  </defs>

  <!-- outer shield -->
  <path
    d="M128 20
       C102 28 72 34 46 38
       V108
       C46 160 76 203 128 234
       C180 203 210 160 210 108
       V38
       C184 34 154 28 128 20Z"
    fill="url(#shieldFill)"
    stroke="rgba(255,255,255,0.42)"
    stroke-width="4"
  />

  <!-- inner glass -->
  <path
    d="M128 38
       C107 44 84 48 64 51
       V108
       C64 149 88 183 128 207
       C168 183 192 149 192 108
       V51
       C172 48 149 44 128 38Z"
    fill="rgba(255,255,255,0.08)"
    stroke="rgba(255,255,255,0.15)"
    stroke-width="2"
  />

  <!-- top shine -->
  <path
    d="M78 58
       C104 50 133 47 165 51
       C142 42 111 42 80 50Z"
    fill="url(#shine)"
  />

  <!-- football -->
  <g transform="translate(168 70)">
    <circle cx="0" cy="0" r="28" fill="#F8FCFB" stroke="#D8E6E1" stroke-width="2"/>
    <polygon points="0,-8 8,-2 5,8 -5,8 -8,-2" fill="#173A32"/>
    <polygon points="-16,-6 -9,-15 1,-12 -2,-2 -11,1" fill="#173A32"/>
    <polygon points="16,-6 9,-15 -1,-12 2,-2 11,1" fill="#173A32"/>
    <polygon points="-12,15 -3,9 4,16 -3,24 -13,21" fill="#173A32"/>
    <polygon points="12,15 3,9 -4,16 3,24 13,21" fill="#173A32"/>
  </g>

  <!-- clean break -->
  <g stroke="white" stroke-opacity="0.72" stroke-linecap="round">
    <path d="M150 73 L135 70" stroke-width="2.4"/>
    <path d="M151 77 L132 87" stroke-width="2.1"/>
    <path d="M154 81 L137 104" stroke-width="2"/>
    <path d="M160 83 L157 112" stroke-width="1.9"/>
    <path d="M166 82 L176 110" stroke-width="1.9"/>
    <path d="M171 79 L189 97" stroke-width="1.8"/>
    <path d="M145 88 L126 98" stroke-width="1.4"/>
  </g>

  <!-- tiny shards -->
  <g fill="#D9FFF2" opacity="0.9">
    <path d="M185 36 L191 28 L193 39 Z"/>
    <path d="M202 47 L210 43 L207 52 Z"/>
    <path d="M207 63 L215 65 L209 72 Z"/>
  </g>
</svg>
